<svg width="35" height="38" viewBox="0 0 35 38" fill="none" xmlns="http://www.w3.org/2000/svg">
<path d="M12.6875 6.25C12.6875 9.4375 13.75 10.5 16.9375 10.5C20.125 10.5 21.1875 9.4375 21.1875 6.25C21.1875 3.0625 20.125 2 16.9375 2C13.5375 2 12.6875 3.0625 12.6875 6.25Z" fill="white"/>
<path d="M12.6875 31.75C12.6875 34.9375 13.75 36 16.9375 36C20.125 36 21.1875 34.9375 21.1875 31.75C21.1875 28.5625 20.125 27.5 16.9375 27.5C13.5375 27.5 12.6875 28.5625 12.6875 31.75Z" fill="white"/>
<path d="M0 19H17.2031H35M16.9375 10.5C13.75 10.5 12.6875 9.4375 12.6875 6.25C12.6875 3.0625 13.5375 2 16.9375 2C20.125 2 21.1875 3.0625 21.1875 6.25C21.1875 9.4375 20.125 10.5 16.9375 10.5ZM16.9375 36C13.75 36 12.6875 34.9375 12.6875 31.75C12.6875 28.5625 13.5375 27.5 16.9375 27.5C20.125 27.5 21.1875 28.5625 21.1875 31.75C21.1875 34.9375 20.125 36 16.9375 36Z" stroke="white" stroke-width="3"/>
</svg>
